# xmcd
#
# Track frame offsets:
#	225
#	17503
#	32109
#	50785
#	64945
#	80734
#	102296
#	120523
#	142405
#	155032
#	174547
#	190357
#	208366
#	225113
#	254688
#	268119
#
# Disc length: 3860 seconds
#
# Revision: 1
# Processed by: cddbd v1.5.1PL0 Copyright (c) Steve Scherf et al.
# Submitted via: audiograbber 1.83.01
#
DISCID=f40f1110
DTITLE=Various Artist - Urlaubshits
DYEAR=2000
DGENRE=Oldies
TTITLE0=Cost Cordalis - Über Delphi ging die Sonne auf
TTITLE1=Bernhard Brink - Von Casablanca nach Athen
TTITLE2=Andy Borg - Die Fischer von St. Juan
TTITLE3=Bata Illic - Ich hab noch Sand in den Schuhen von Hawaii
TTITLE4=Goombay Dance Band - Aloha Oe
TTITLE5=Christian Anders - Es fährt ein Zug nach nirgendwo
TTITLE6=Jürgen Marcus - Ein Festival der Liebe
TTITLE7=Bernhard Brink - Nikita
TTITLE8=Ike and Tina Turner - Shame Shame Shame
TTITLE9=Trini Lopez - La Bamba
TTITLE10=Los Reyes - La Bamba
TTITLE11=Smokey - Mexican Girl
TTITLE12=The Trinidads - Islands in the Sun
TTITLE13=Kool and Gang - Summer
TTITLE14=Middle of the Road - Chirpy Chirpy Cheep Cheep
TTITLE15=Baccara - Yes Sir I can Boogie
EXTD=
EXTT0=
EXTT1=
EXTT2=
EXTT3=
EXTT4=
EXTT5=
EXTT6=
EXTT7=
EXTT8=
EXTT9=
EXTT10=
EXTT11=
EXTT12=
EXTT13=
EXTT14=
EXTT15=
PLAYORDER=
